<svg viewBox="0 0 100 100" fill="none" xmlns="http://www.w3.org/2000/svg">
  <defs>
    <linearGradient id="g-left" x1="20" y1="80" x2="48" y2="24" gradientUnits="userSpaceOnUse">
      <stop offset="0%" stop-color="#06B6D4" />
      <stop offset="100%" stop-color="#3B82F6" />
    </linearGradient>
    <linearGradient id="g-mid" x1="45" y1="24" x2="60" y2="80" gradientUnits="userSpaceOnUse">
      <stop offset="0%" stop-color="#3B82F6" />
      <stop offset="50%" stop-color="#8B5CF6" />
      <stop offset="100%" stop-color="#EC4899" />
    </linearGradient>
    <linearGradient id="g-right" x1="56" y1="78" x2="80" y2="24" gradientUnits="userSpaceOnUse">
      <stop offset="0%" stop-color="#EC4899" />
      <stop offset="100%" stop-color="#F43F5E" />
    </linearGradient>
    <filter id="glow" x="-20%" y="-20%" width="140%" height="140%">
      <feDropShadow dx="0" dy="2" stdDeviation="3" flood-color="#06B6D4" flood-opacity="0.3" />
      <feDropShadow dx="0" dy="2" stdDeviation="4" flood-color="#EC4899" flood-opacity="0.3" />
    </filter>
  </defs>
  <g filter="url(#glow)">
    <path d="M20 78L40 26C41.5 22 47 22 48.5 26L49 28L29 80C27.5 84 22 84 20.5 80L20 78Z" fill="url(#g-left)" />
    <path d="M40 26C42 22 47 22 49 26L63 76C64.5 80 60 83 56 81L39 30C39.5 28.5 40 27 40 26Z" fill="url(#g-mid)" />
    <path d="M56 78L75 26C76.5 22 82 22 83.5 26L84 28L65 80C63.5 84 58 84 56.5 80L56 78Z" fill="url(#g-right)" />
    <path d="M77 18C77 21.5 74.5 24 71 24C74.5 24 77 26.5 77 30C77 26.5 79.5 24 83 24C79.5 24 77 21.5 77 18Z" fill="#FFFFFF" />
    <circle cx="77" cy="24" r="1.5" fill="#FFFFFF" opacity="0.95" />
  </g>
</svg>
